{
  "accessors": [
    {
      "bufferView": 2,
      "componentType": 5126,
      "count": 747,
      "max": [
        0.07126155495643616,
        0.23540854454040527,
        0.07660862803459167
      ],
      "min": [
        -0.07128611952066422,
        -6.318092346191406e-06,
        -0.10323292016983032
      ],
      "type": "VEC3"
    },
    {
      "bufferView": 2,
      "byteOffset": 8964,
      "componentType": 5126,
      "count": 747,
      "max": [
        0.995073139667511,
        0.998850405216217,
        0.9998860359191895
      ],
      "min": [
        -0.9950829148292542,
        -0.9991710782051086,
        -0.9985820055007935
      ],
      "type": "VEC3"
    },
    {
      "bufferView": 3,
      "componentType": 5126,
      "count": 747,
      "max": [
        1.0,
        1.0,
        1.0,
        1.0
      ],
      "min": [
        0.9921568632125854,
        0.9921568632125854,
        0.9921568632125854,
        0.9960784316062927
      ],
      "type": "VEC4"
    },
    {
      "bufferView": 1,
      "componentType": 5126,
      "count": 747,
      "max": [
        0.9863252639770508,
        0.953176736831665
      ],
      "min": [
        0.010559529066085815,
        0.016317039728164673
      ],
      "type": "VEC2"
    },
    {
      "bufferView": 0,
      "componentType": 5125,
      "count": 3900,
      "type": "SCALAR"
    },
    {
      "bufferView": 2,
      "byteOffset": 17928,
      "componentType": 5126,
      "count": 238,
      "max": [
        0.03891013562679291,
        0.013766370713710785,
        0.0035397596657276154
      ],
      "min": [
        -0.0389101468026638,
        -0.013766398653388023,
        -0.009178734384477139
      ],
      "type": "VEC3"
    },
    {
      "bufferView": 2,
      "byteOffset": 20784,
      "componentType": 5126,
      "count": 238,
      "max": [
        0.9951850175857544,
        0.9951851963996887,
        0.9191747903823853
      ],
      "min": [
        -0.9951850771903992,
        -0.9951848983764648,
        0.09801298379898071
      ],
      "type": "VEC3"
    },
    {
      "bufferView": 1,
      "byteOffset": 5976,
      "componentType": 5126,
      "count": 238,
      "max": [
        1.0,
        0.8750000596046448
      ],
      "min": [
        0.0,
        0.5
      ],
      "type": "VEC2"
    },
    {
      "bufferView": 0,
      "byteOffset": 15600,
      "componentType": 5125,
      "count": 1152,
      "type": "SCALAR"
    },
    {
      "bufferView": 2,
      "byteOffset": 23640,
      "componentType": 5126,
      "count": 292,
      "max": [
        0.028291519731283188,
        0.003147787181660533,
        0.004593340680003166
      ],
      "min": [
        -0.028291530907154083,
        -0.003147770883515477,
        0.000951714813709259
      ],
      "type": "VEC3"
    },
    {
      "bufferView": 2,
      "byteOffset": 27144,
      "componentType": 5126,
      "count": 292,
      "max": [
        0.37312743067741394,
        0.3731215298175812,
        1.0
      ],
      "min": [
        -0.3731270730495453,
        -0.37313300371170044,
        0.9277778267860413
      ],
      "type": "VEC3"
    },
    {
      "bufferView": 1,
      "byteOffset": 7880,
      "componentType": 5126,
      "count": 292,
      "max": [
        1.0000001192092896,
        1.0
      ],
      "min": [
        7.043966832043225e-08,
        0.05655341595411301
      ],
      "type": "VEC2"
    },
    {
      "bufferView": 0,
      "byteOffset": 20208,
      "componentType": 5125,
      "count": 672,
      "type": "SCALAR"
    },
    {
      "bufferView": 2,
      "byteOffset": 30648,
      "componentType": 5126,
      "count": 260,
      "max": [
        0.03131832927465439,
        0.006174597889184952,
        0.004328826442360878
      ],
      "min": [
        -0.031318340450525284,
        -0.006174582988023758,
        0.001450665295124054
      ],
      "type": "VEC3"
    },
    {
      "bufferView": 2,
      "byteOffset": 33768,
      "componentType": 5126,
      "count": 260,
      "max": [
        0.3938503861427307,
        0.39385029673576355,
        0.9781466722488403
      ],
      "min": [
        -0.3938504755496979,
        -0.3938503563404083,
        0.9191744923591614
      ],
      "type": "VEC3"
    },
    {
      "bufferView": 1,
      "byteOffset": 10216,
      "componentType": 5126,
      "count": 260,
      "max": [
        1.003986120223999,
        0.9375000596046448
      ],
      "min": [
        -0.003986309748142958,
        0.22986799478530884
      ],
      "type": "VEC2"
    },
    {
      "bufferView": 0,
      "byteOffset": 22896,
      "componentType": 5125,
      "count": 576,
      "type": "SCALAR"
    }
  ],
  "asset": {
    "extras": {
      "author": "MikeMoore (https://sketchfab.com/mikemoore1973)",
      "license": "CC-BY-4.0 (http://creativecommons.org/licenses/by/4.0/)",
      "source": "https://sketchfab.com/3d-models/base-male-head-3e404fcdaad04f478d6e791f69a008ef",
      "title": "Base Male Head"
    },
    "generator": "Sketchfab-13.26.0",
    "version": "2.0"
  },
  "bufferViews": [
    {
      "buffer": 0,
      "byteLength": 25200,
      "name": "floatBufferViews",
      "target": 34963
    },
    {
      "buffer": 0,
      "byteLength": 12296,
      "byteOffset": 25200,
      "byteStride": 8,
      "name": "floatBufferViews",
      "target": 34962
    },
    {
      "buffer": 0,
      "byteLength": 36888,
      "byteOffset": 37496,
      "byteStride": 12,
      "name": "floatBufferViews",
      "target": 34962
    },
    {
      "buffer": 0,
      "byteLength": 11952,
      "byteOffset": 74384,
      "byteStride": 16,
      "name": "floatBufferViews",
      "target": 34962
    }
  ],
  "buffers": [
    {
      "byteLength": 86336,
      "uri": "scene.bin"
    }
  ],
  "materials": [
    {
      "doubleSided": true,
      "name": "material_0",
      "pbrMetallicRoughness": {
        "metallicFactor": 0.0,
        "roughnessFactor": 0.6
      }
    },
    {
      "doubleSided": true,
      "name": "Material.001",
      "pbrMetallicRoughness": {
        "baseColorFactor": [
          0.8,
          0.8,
          0.8,
          1.0
        ],
        "metallicFactor": 0.0,
        "roughnessFactor": 0.5
      }
    },
    {
      "doubleSided": true,
      "name": "black",
      "pbrMetallicRoughness": {
        "baseColorFactor": [
          0.0,
          0.0,
          0.0,
          1.0
        ],
        "metallicFactor": 0.0,
        "roughnessFactor": 0.5
      }
    },
    {
      "doubleSided": true,
      "name": "brown",
      "pbrMetallicRoughness": {
        "baseColorFactor": [
          0.212231,
          0.0497065,
          0.0137021,
          1.0
        ],
        "metallicFactor": 0.0,
        "roughnessFactor": 0.5
      }
    }
  ],
  "meshes": [
    {
      "name": "Object_0",
      "primitives": [
        {
          "attributes": {
            "COLOR_0": 2,
            "NORMAL": 1,
            "POSITION": 0,
            "TEXCOORD_0": 3
          },
          "indices": 4,
          "material": 0,
          "mode": 4
        }
      ]
    },
    {
      "name": "Object_1",
      "primitives": [
        {
          "attributes": {
            "NORMAL": 6,
            "POSITION": 5,
            "TEXCOORD_0": 7
          },
          "indices": 8,
          "material": 1,
          "mode": 4
        }
      ]
    },
    {
      "name": "Object_2",
      "primitives": [
        {
          "attributes": {
            "NORMAL": 10,
            "POSITION": 9,
            "TEXCOORD_0": 11
          },
          "indices": 12,
          "material": 2,
          "mode": 4
        }
      ]
    },
    {
      "name": "Object_3",
      "primitives": [
        {
          "attributes": {
            "NORMAL": 14,
            "POSITION": 13,
            "TEXCOORD_0": 15
          },
          "indices": 16,
          "material": 3,
          "mode": 4
        }
      ]
    }
  ],
  "nodes": [
    {
      "children": [
        1
      ],
      "matrix": [
        1.0,
        0.0,
        0.0,
        0.0,
        0.0,
        2.220446049250313e-16,
        -1.0,
        0.0,
        0.0,
        1.0,
        2.220446049250313e-16,
        0.0,
        0.0,
        0.0,
        0.0,
        1.0
      ],
      "name": "Sketchfab_model"
    },
    {
      "children": [
        2
      ],
      "name": "root"
    },
    {
      "children": [
        3,
        5
      ],
      "matrix": [
        1.0,
        0.0,
        0.0,
        0.0,
        0.0,
        2.220446049250313e-16,
        1.0,
        0.0,
        0.0,
        -1.0,
        2.220446049250313e-16,
        0.0,
        0.0,
        0.0,
        0.0,
        1.0
      ],
      "name": "GLTF_SceneRootNode"
    },
    {
      "children": [
        4
      ],
      "name": "head_0"
    },
    {
      "mesh": 0,
      "name": "Object_4"
    },
    {
      "children": [
        6,
        7,
        8
      ],
      "matrix": [
        1.0,
        0.0,
        0.0,
        0.0,
        0.0,
        1.0,
        0.0,
        0.0,
        0.0,
        0.0,
        1.0,
        0.0,
        0.0,
        0.1492096185684204,
        0.04210247844457626,
        1.0
      ],
      "name": "eyes_1"
    },
    {
      "mesh": 1,
      "name": "Object_6"
    },
    {
      "mesh": 2,
      "name": "Object_7"
    },
    {
      "mesh": 3,
      "name": "Object_8"
    }
  ],
  "scene": 0,
  "scenes": [
    {
      "name": "Sketchfab_Scene",
      "nodes": [
        0
      ]
    }
  ]
}
